<?xml version="1.0" standalone="no"?>
<!DOCTYPE svg PUBLIC "-//W3C//DTD SVG 20010904//EN"
 "http://www.w3.org/TR/2001/REC-SVG-20010904/DTD/svg10.dtd">
<svg version="1.0" xmlns="http://www.w3.org/2000/svg"
 width="700.000000pt" height="700.000000pt" viewBox="0 0 700.000000 700.000000"
 preserveAspectRatio="xMidYMid meet">
<metadata>
Created by potrace 1.14, written by Peter Selinger 2001-2017
</metadata>
<g transform="translate(0.000000,700.000000) scale(0.100000,-0.100000)"
fill="#000000" stroke="none">
<path d="M1045 6526 c-242 -45 -439 -206 -532 -438 -56 -137 -54 -25 -51
-2628 3 -2261 4 -2409 21 -2465 25 -86 89 -211 142 -277 84 -104 229 -195 375
-235 61 -17 198 -18 2500 -18 2290 0 2439 1 2500 18 88 23 213 86 282 142 104
84 195 229 235 375 17 61 18 198 18 2500 0 2302 -1 2439 -18 2500 -40 146
-131 291 -235 375 -66 53 -191 117 -277 142 -56 17 -203 18 -2475 20 -1926 1
-2429 -1 -2485 -11z m2215 -1161 l0 -695 -1160 0 -1160 0 2 618 3 619 30 48
c22 36 45 57 84 77 l53 28 1074 0 1074 0 0 -695z m2681 667 c39 -20 62 -41 84
-77 l30 -48 3 -619 2 -618 -1160 0 -1160 0 0 695 0 695 1074 0 1074 0 53 -28z
m-2681 -2532 l0 -700 -1160 0 -1160 0 0 700 0 700 1160 0 1160 0 0 -700z
m2800 0 l0 -700 -1160 0 -1160 0 0 700 0 700 1160 0 1160 0 0 -700z m-2800
-1865 l0 -695 -1074 0 -1074 0 -53 28 c-39 20 -62 41 -84 77 l-30 48 -3 619
-2 618 1160 0 1160 0 0 -695z m2800 88 c0 -568 -2 -611 -19 -648 -23 -51 -65
-93 -116 -116 -38 -18 -94 -19 -1112 -19 l-1073 0 0 695 0 695 1160 0 1160 0
0 -607z"/>
</g>
</svg>
